<svg xmlns="http://www.w3.org/2000/svg" viewBox="0 0 100 100" class="w-full h-full">
  <path d="M49.9 12.5c-13.4 0-14.7 6.3-14.7 6.3v8.3h14.7v2.1H28.1s-9.4 1-9.4 14.6v11.5s1.2 14.6 15.6 14.6h11.5v-7.3s-.1-6.3 6.3-6.3h17.7s6.2 0 6.2-6.2V31.2s0-6.2-6.2-6.2H56.2s-6.3-.6-6.3-6.3v-6.2zm-12 4.2c2.6 0 4.7 2.1 4.7 4.7s-2.1 4.7-4.7 4.7-4.7-2.1-4.7-4.7 2.1-4.7 4.7-4.7z" fill="#3776AB"/>
  <path d="M50.1 87.5c13.4 0 14.7-6.3 14.7-6.3v-8.3H50.1v-2.1h21.9s9.4-1 9.4-14.6V44.8s-1.2-14.6-15.6-14.6H54.9v7.3s.1 6.3-6.3 6.3H30.9s-6.2 0-6.2 6.2v17.7s0 6.2 6.2 6.2h13.5s6.3.6 6.3 6.3v6.2zm12-4.2c-2.6 0-4.7-2.1-4.7-4.7s2.1-4.7 4.7-4.7 4.7 2.1 4.7 4.7-2.1 4.7-4.7 4.7z" fill="#FFD43B"/>
</svg>